<?xml version="1.0" encoding="iso-8859-1"?>
<!-- Generator: Adobe Illustrator 19.0.0, SVG Export Plug-In . SVG Version: 6.00 Build 0)  -->
<svg version="1.1" id="Layer_1" xmlns="http://www.w3.org/2000/svg" xmlns:xlink="http://www.w3.org/1999/xlink" x="0px" y="0px"
	 viewBox="0 0 511.989 511.989" style="enable-background:new 0 0 511.989 511.989;" xml:space="preserve">
<g>
	<rect x="48.616" y="11.499" style="fill:#965353;" width="418.37" height="418.93"/>
	<rect x="45.499" y="437.995" style="fill:#965353;" width="420.99" height="60"/>
</g>
<g>
	<rect x="48.616" y="336.135" style="fill:#E6E9ED;" width="94.67" height="94.3"/>
	<rect x="156.525" y="224.985" style="fill:#E6E9ED;" width="94.67" height="94.29"/>
	<rect x="155.305" y="18.984" style="fill:#E6E9ED;" width="94.67" height="94.3"/>
	<rect x="260.025" y="336.135" style="fill:#E6E9ED;" width="94.67" height="94.3"/>
	<rect x="364.055" y="224.985" style="fill:#E6E9ED;" width="94.67" height="94.29"/>
	<rect x="262.015" y="122.745" style="fill:#E6E9ED;" width="94.67" height="94.3"/>
	<rect x="368.325" y="18.984" style="fill:#E6E9ED;" width="94.67" height="94.3"/>
	<rect x="48.616" y="122.745" style="fill:#E6E9ED;" width="94.67" height="94.3"/>
</g>
<g>
	<path style="fill:#ED5565;" d="M127.302,60.998c0,17.484-14.172,31.656-31.648,31.656c-17.484,0-31.656-14.171-31.656-31.656
		c0-17.484,14.172-31.656,31.656-31.656C113.13,29.343,127.302,43.515,127.302,60.998z"/>
	<path style="fill:#ED5565;" d="M340.993,60.998c0,17.484-14.172,31.656-31.655,31.656c-17.469,0-31.655-14.171-31.655-31.656
		c0-17.484,14.187-31.656,31.655-31.656C326.821,29.343,340.993,43.515,340.993,60.998z"/>
	<path style="fill:#ED5565;" d="M232.66,168.34c0,17.484-14.172,31.656-31.648,31.656c-17.484,0-31.656-14.172-31.656-31.656
		s14.172-31.656,31.656-31.656C218.488,136.684,232.66,150.856,232.66,168.34z"/>
	<path style="fill:#ED5565;" d="M447.304,168.34c0,17.484-14.172,31.656-31.655,31.656c-17.469,0-31.655-14.172-31.655-31.656
		s14.187-31.656,31.655-31.656C433.132,136.684,447.304,150.856,447.304,168.34z"/>
</g>
<g>
	<path style="fill:#F5F7FA;" d="M340.993,276.604c0,17.483-14.156,31.655-31.64,31.655s-31.655-14.172-31.655-31.655
		c0-17.484,14.171-31.656,31.655-31.656C326.837,244.948,340.993,259.12,340.993,276.604z"/>
	<path style="fill:#F5F7FA;" d="M127.607,274.604c0,17.483-14.172,31.655-31.648,31.655c-17.484,0-31.656-14.172-31.656-31.655
		c0-17.484,14.172-31.656,31.656-31.656C113.435,242.948,127.607,257.12,127.607,274.604z"/>
	<path style="fill:#F5F7FA;" d="M229.605,383.274c0,17.483-14.172,31.655-31.648,31.655c-17.484,0-31.656-14.172-31.656-31.655
		c0-17.484,14.172-31.656,31.656-31.656C215.433,351.618,229.605,365.79,229.605,383.274z"/>
	<path style="fill:#F5F7FA;" d="M451.929,384.618c0,17.483-14.172,31.655-31.655,31.655c-17.469,0-31.655-14.172-31.655-31.655
		c0-17.484,14.187-31.656,31.655-31.656C437.757,352.962,451.929,367.134,451.929,384.618z"/>
</g>
<g>
	<path style="fill:#080808;" d="M469.397,0H42.608c-5.906,0-10.672,4.781-10.672,10.671v63.202v363.586v63.859
		c0,5.89,4.766,10.671,10.672,10.671h426.789c5.891,0,10.656-4.781,10.656-10.671v-63.859V73.873V10.671
		C480.054,4.781,475.288,0,469.397,0z M373.368,169.887c0,23.546,19.141,42.687,42.671,42.687s42.687-19.14,42.687-42.687
		c0-23.515-19.141-42.671-42.671-42.671h42.671v42.671v42.687h-42.687h-42.671V169.887v-42.671h42.655
		C392.493,127.216,373.368,146.372,373.368,169.887z M416.039,148.559c11.765,0,21.343,9.562,21.343,21.328
		s-9.578,21.343-21.343,21.343c-11.766,0-21.343-9.578-21.343-21.343C394.696,158.122,404.273,148.559,416.039,148.559z
		 M53.28,233.917h42.671h42.671v42.671v42.686H95.951H53.28v-42.686V233.917z M159.965,233.917h85.358v85.357h-85.358V233.917z
		 M266.667,276.589v-42.671h42.671h42.687v42.671v42.686h-42.687h-42.671V276.589z M373.368,233.917h85.357v85.357h-85.357V233.917z
		 M352.024,212.574h-85.357v-85.357h85.357V212.574z M266.667,69.233c2.531,19.015,17.625,34.109,36.64,36.64h-36.64V69.233z
		 M287.62,63.577c0-11.765,9.577-21.328,21.343-21.328c11.765,0,21.343,9.562,21.343,21.328s-9.578,21.343-21.343,21.343
		C297.197,84.92,287.62,75.342,287.62,63.577z M314.603,105.872c20.874-2.765,37.03-20.671,37.03-42.296
		c0-21.468-15.953-39.296-36.624-42.233h37.015v84.529H314.603z M266.667,57.936V21.343h36.249
		C284.073,24.031,269.183,39.046,266.667,57.936z M245.323,105.872h-85.358V21.343h85.358V105.872z M202.652,127.216h42.671v42.671
		v42.687h-42.671h-42.687v-42.687v-42.671C159.965,127.216,202.652,127.216,202.652,127.216z M138.622,212.574H53.28v-85.357h85.342
		V212.574z M53.28,340.602h85.342v86.186H53.28V340.602z M159.965,383.29v-42.688h42.687h42.671v42.688v43.498h-85.358V383.29z
		 M266.667,340.602h85.357v86.186h-85.357V340.602z M373.368,383.29v-42.688h42.671h42.687v42.688v43.498h-85.357V383.29H373.368z
		 M458.725,105.872h-85.357V21.343h85.357V105.872z M53.28,21.343h34.343C68.061,25.218,53.28,42.515,53.28,63.202
		c0,23.531,19.141,42.671,42.671,42.671s42.671-19.14,42.671-42.671c0-20.687-14.781-37.983-34.343-41.858h34.343v41.858v42.671
		H95.951H53.28V63.202V21.343z M95.951,41.858c11.765,0,21.343,9.578,21.343,21.343c0,11.766-9.578,21.328-21.343,21.328
		c-11.766,0-21.343-9.562-21.343-21.328C74.608,51.436,84.185,41.858,95.951,41.858z M53.28,490.647v-42.516h405.445v42.516H53.28z"
		/>
	<path style="fill:#080808;" d="M248.448,461.1c-4.172,4.172-4.172,10.922,0,15.094c4.172,4.156,10.922,4.156,15.094,0
		c4.172-4.172,4.172-10.922,0-15.094S252.62,456.929,248.448,461.1z"/>
	<path style="fill:#080808;" d="M159.965,169.887c0,23.546,19.156,42.687,42.687,42.687s42.671-19.14,42.671-42.687
		c0-23.531-19.14-42.671-42.671-42.671S159.965,146.356,159.965,169.887z M202.652,148.559c11.765,0,21.328,9.562,21.328,21.328
		s-9.562,21.343-21.328,21.343s-21.343-9.578-21.343-21.343S190.887,148.559,202.652,148.559z"/>
	<path style="fill:#080808;" d="M309.338,319.274c23.546,0,42.687-19.155,42.687-42.686s-19.141-42.671-42.687-42.671
		c-23.53,0-42.671,19.14-42.671,42.671S285.807,319.274,309.338,319.274z M309.338,255.245c11.78,0,21.343,9.578,21.343,21.344
		s-9.562,21.343-21.343,21.343c-11.766,0-21.327-9.577-21.327-21.343S297.572,255.245,309.338,255.245z"/>
	<path style="fill:#080808;" d="M95.951,319.274c23.531,0,42.671-19.155,42.671-42.686s-19.14-42.671-42.671-42.671
		s-42.671,19.14-42.671,42.671C53.28,300.119,72.42,319.274,95.951,319.274z M95.951,255.245c11.765,0,21.343,9.578,21.343,21.344
		s-9.578,21.343-21.343,21.343c-11.766,0-21.343-9.577-21.343-21.343S84.185,255.245,95.951,255.245z"/>
	<path style="fill:#080808;" d="M202.652,425.96c23.531,0,42.671-19.14,42.671-42.67c0-23.531-19.14-42.688-42.671-42.688
		s-42.687,19.156-42.687,42.688C159.965,406.82,179.121,425.96,202.652,425.96z M202.652,361.946
		c11.765,0,21.328,9.578,21.328,21.344s-9.562,21.343-21.328,21.343s-21.343-9.577-21.343-21.343S190.887,361.946,202.652,361.946z"
		/>
	<path style="fill:#080808;" d="M416.039,425.96c23.53,0,42.687-19.14,42.687-42.67c0-23.531-19.156-42.688-42.687-42.688
		s-42.671,19.156-42.671,42.688C373.368,406.82,392.509,425.96,416.039,425.96z M416.039,361.946
		c11.765,0,21.343,9.578,21.343,21.344s-9.578,21.343-21.343,21.343c-11.766,0-21.343-9.577-21.343-21.343
		S404.273,361.946,416.039,361.946z"/>
</g>
<g>
</g>
<g>
</g>
<g>
</g>
<g>
</g>
<g>
</g>
<g>
</g>
<g>
</g>
<g>
</g>
<g>
</g>
<g>
</g>
<g>
</g>
<g>
</g>
<g>
</g>
<g>
</g>
<g>
</g>
</svg>
